<?xml version="1.0" encoding="utf-8"?><svg viewBox="0 0 20 20" xmlns="http://www.w3.org/2000/svg" xmlns:xlink="http://www.w3.org/1999/xlink"><style>:root>svg{display:none}:root>svg:target{display:block}</style><svg fill="none" viewBox="0 0 10 5" id="arrow" xmlns="http://www.w3.org/2000/svg"><path d="M5 5 .67.5h8.66L5 5Z" fill="#fff"/></svg><svg fill="none" viewBox="0 0 20 20" id="avatar" xmlns="http://www.w3.org/2000/svg"><g clip-path="url(#ba)" fill="#fff"><path d="M13.75 7.5a3.75 3.75 0 1 1-7.5 0 3.75 3.75 0 0 1 7.5 0Z"/><path fill-rule="evenodd" clip-rule="evenodd" d="M0 10a10 10 0 1 1 20 0 10 10 0 0 1-20 0Zm10-8.75a8.75 8.75 0 0 0-6.835 14.213C4.053 14.033 6.006 12.5 10 12.5c3.994 0 5.946 1.531 6.835 2.963A8.75 8.75 0 0 0 10 1.25Z"/></g><defs><clipPath id="ba"><path fill="#fff" d="M0 0h20v20H0z"/></clipPath></defs></svg><svg fill="none" viewBox="0 0 16 16" id="cart" xmlns="http://www.w3.org/2000/svg"><path d="M15.91 4.324a.504.504 0 0 0-.409-.218H4.836L4.03 1.247C3.712.122 2.96 0 2.652 0H.499A.506.506 0 0 0 0 .512c0 .283.223.513.499.513h2.152c.068 0 .276 0 .418.503l2.777 10.48a.5.5 0 0 0 .48.374h6.784a.5.5 0 0 0 .47-.34l2.39-7.25a.524.524 0 0 0-.06-.468Zm-3.151 7.033H6.705L5.117 5.131h9.675l-2.033 6.226Zm-.99 2.063c-.694 0-1.256.577-1.256 1.29 0 .713.562 1.29 1.256 1.29s1.256-.577 1.256-1.29c0-.713-.562-1.29-1.256-1.29Zm-4.523 0c-.694 0-1.256.577-1.256 1.29 0 .713.562 1.29 1.256 1.29s1.257-.577 1.257-1.29c0-.713-.563-1.29-1.257-1.29Z" fill="#fff"/></svg><svg fill="none" viewBox="0 0 10 16" id="diagram" xmlns="http://www.w3.org/2000/svg"><path d="M4 1a1 1 0 0 1 2 0v15H4V1ZM8 5a1 1 0 0 1 2 0v11H8V5ZM0 10a1 1 0 0 1 2 0v6H0v-6Z" fill="#fff"/></svg><svg fill="none" viewBox="0 0 17 16" id="heart" xmlns="http://www.w3.org/2000/svg"><path d="M7.609 14.484v-.001c-2.2-2.045-3.984-3.709-5.226-5.267C1.148 7.666.5 6.28.5 4.796.5 2.366 2.344.5 4.675.5c1.323 0 2.605.634 3.442 1.634l.383.459.383-.459C9.72 1.134 11.002.5 12.325.5c2.33 0 4.175 1.866 4.175 4.296 0 1.483-.648 2.87-1.883 4.42-1.242 1.558-3.027 3.222-5.225 5.267l-.892.833-.891-.832Z" stroke="#fff"/></svg></svg>